<svg width="24" height="24" viewBox="0 0 24 24" xmlns="http://www.w3.org/2000/svg">
  <defs>
    <mask id="mask">
      <rect x="0" y="0" width="20" height="17.9953708" fill="#fff"></rect>
    </mask>
  </defs>

  <g transform="translate(2 3)" fill="#495057">
    <path mask="url(#mask)" d="M1.26810993 13.3807221
         L7.86036937 13.3807221
         C9.56087376 13.3807221 11.2379633 13.6592429 12.8467595 14.2094435
         L18.7307193 16.219679
         L18.7307193 1.7756918
         L12.8467595 3.78690464
         C11.2369877 4.33612797 9.55989815 4.6146487 7.86036937 4.6146487
         L1.26810993 4.6146487
         Z
         M20 17.9953708
         L12.4369994 15.4114803
         C10.9608874 14.9072112 9.42038459 14.6521448 7.86036937 14.6521448
         L0 14.6521448
         L0 3.34420327
         L7.86036937 3.34420327
         C9.41940897 3.34420327 10.9599118 3.08913692 12.4369994 2.58389055
         L20 0
         Z"></path>
    <path d="M7.16709431 19
         C4.8226812 19 3.05388345 16.9995371 3.05388345 14.3472379
         C3.05388345 14.2143298 3.06168841 14.0892398 3.0714446 13.9709906
         L4.33584718 14.0667627
         C4.32901784 14.1537393 4.32218851 14.2485341 4.32218851 14.3472379
         C4.32218851 16.2753832 5.54561508 17.7285773 7.16709431 17.7285773
         C9.26662699 17.7285773 10.0120001 15.9079313 10.0120001 14.3472379
         L11.2803052 14.2856702
         L11.2803052 14.3472379
         C11.2803052 17.1304907 9.6266305 19 7.16709431 19"></path>
  </g>
</svg>
